<svg xmlns="http://www.w3.org/2000/svg" xmlns:xlink="http://www.w3.org/1999/xlink" width="44" height="51" xmlns:v="https://vecta.io/nano"><g transform="translate(-1640 -2453)"><g fill="#4e4e4e"><use xlink:href="#A" x="1640.54" y="2474.36"/><use xlink:href="#B" x="1645.68" y="2474.37"/><use xlink:href="#C" x="1653.39" y="2474.26"/><use xlink:href="#D" x="1660.43" y="2474.39"/><use xlink:href="#E" x="1667.55" y="2472.54"/><use xlink:href="#F" x="1672.47" y="2474.29"/><use xlink:href="#G" x="1679.98" y="2474.24"/></g><use xlink:href="#H" fill="#767677" x="1673.48" y="2453.69"/><g fill="#f37726"><use xlink:href="#I" x="1643.21" y="2484.27"/><use xlink:href="#J" x="1643.21" y="2457.88"/></g><use xlink:href="#K" fill="#9e9e9e" x="1643.28" y="2496.09"/><use xlink:href="#L" fill="#616262" x="1641.87" y="2458.43"/></g><defs><path id="A" d="M1.745 5.475c0 1.558-.125 2.065-.445 2.439a1.94 1.94 0 0 1-1.3.499l.125.89c.744.01 1.466-.253 2.03-.739a3.56 3.56 0 0 0 .783-2.671V0H1.745v5.44.036z"/><path id="B" d="M5.502 4.763l.053 1.781H4.496l-.071-1.059c-.222.375-.539.684-.919.897s-.81.321-1.245.314C1.229 6.695 0 6.134 0 3.846V.045h1.193v3.561c0 1.238.383 2.065 1.46 2.065.222.002.442-.04.647-.123s.392-.208.548-.364.281-.343.364-.548.126-.425.123-.647V0h1.193v4.727l-.027.036z"/><path id="C" d="M.053 2.273L0 .154h1.068l.053 1.113A2.58 2.58 0 0 1 3.454.002c1.585 0 2.778 1.327 2.778 3.303 0 2.333-1.433 3.49-2.982 3.49-.396.018-.791-.067-1.145-.247s-.656-.447-.876-.777h0v3.561H.053V2.299v-.027zm1.175 1.736a2.67 2.67 0 0 0 .053.481c.101.395.331.746.653.996s.719.385 1.127.384c1.255 0 1.994-1.024 1.994-2.511 0-1.3-.694-2.413-1.95-2.413a2.05 2.05 0 0 0-1.879 1.95v1.113z"/><path id="D" d="M1.318.018l1.433 3.837.418 1.327.418-1.353 1.3-3.81h1.255l-1.781 4.63c-.89 2.226-1.433 3.374-2.252 4.069a3.24 3.24 0 0 1-1.46.766l-.294-.997a3.16 3.16 0 0 0 1.042-.579 3.56 3.56 0 0 0 1.006-1.318.89.89 0 0 0 .098-.285c-.01-.107-.037-.213-.08-.312L0 0h1.3l.018.018z"/><path id="E" d="M2.19 0v1.87H3.9v.89H2.19v3.508c0 .801.231 1.264.89 1.264a2.67 2.67 0 0 0 .694-.08l.053.89a2.94 2.94 0 0 1-1.059.16c-.238.015-.477-.022-.7-.108s-.424-.219-.591-.391c-.363-.485-.528-1.089-.463-1.692V2.751H0v-.89h1.033V.276L2.19 0z"/><path id="F" d="M1.177 3.579a2.09 2.09 0 0 0 .606 1.646 2.09 2.09 0 0 0 1.646.606c.611.014 1.217-.102 1.781-.338l.205.89a5.34 5.34 0 0 1-2.181.401c-.436.03-.872-.035-1.281-.19s-.778-.396-1.084-.707S.328 5.202.18 4.791-.026 3.943.011 3.508C.011 1.549 1.177 0 3.082 0c2.137 0 2.671 1.87 2.671 3.063a4.45 4.45 0 0 1 0 .552H1.15l.027-.036zm3.49-.89c.034-.238.017-.481-.05-.712s-.183-.445-.34-.627-.351-.329-.569-.43-.456-.154-.696-.155a1.97 1.97 0 0 0-1.825 1.923h3.481z"/><path id="G" d="M.053 2.192L0 .162h1.068v1.273h.053A1.97 1.97 0 0 1 2.902.011a1.3 1.3 0 0 1 .338 0v1.113a1.78 1.78 0 0 0-.41 0c-.404.016-.789.178-1.082.456s-.475.654-.512 1.057c-.033.182-.051.367-.053.552v3.463H.009V2.201l.045-.009z"/><path id="H" d="M6.031 2.836a3.02 3.02 0 0 1-1.702 2.903 3.02 3.02 0 0 1-3.331-.476 3.02 3.02 0 0 1-.907-1.507 3.02 3.02 0 0 1 .087-1.757A3.02 3.02 0 0 1 2.888.005 2.98 2.98 0 0 1 4.044.17c.371.131.712.334 1.004.597s.529.581.698.936a2.98 2.98 0 0 1 .285 1.133h0z"/><path id="I" d="M18.696 7.122C10.684 7.122 3.641 4.247 0 0c1.413 3.82 3.962 7.116 7.305 9.444s7.318 3.576 11.391 3.576 8.049-1.248 11.392-3.576S35.98 3.82 37.393 0C33.76 4.247 26.745 7.122 18.696 7.122z"/><path id="J" d="M18.696 5.897c8.013 0 15.055 2.876 18.696 7.122-1.413-3.82-3.962-7.116-7.305-9.444S22.77 0 18.696 0 10.647 1.248 7.305 3.576 1.413 9.199 0 13.02c3.641-4.256 10.648-7.122 18.696-7.122z"/><path id="K" d="M7.596 3.567a3.8 3.8 0 0 1-2.139 3.659 3.8 3.8 0 0 1-4.196-.595 3.8 3.8 0 0 1-1.037-4.11A3.8 3.8 0 0 1 3.634.005c.494-.026.988.045 1.455.209s.896.42 1.264.75.667.731.88 1.177.337.93.363 1.424h0z"/><path id="L" d="M2.251 4.379A2.19 2.19 0 0 1 .194 3.091 2.19 2.19 0 0 1 .589.696 2.19 2.19 0 0 1 2.951.137 2.19 2.19 0 0 1 4.378 2.1c.017.584-.197 1.15-.595 1.577s-.949.679-1.532.702z"/></defs></svg>