<svg xmlns="http://www.w3.org/2000/svg" viewBox="0 0 631.65 688.23"><defs><style>.cls-1{fill:#e9e9e9;}.cls-2,.cls-4,.cls-6{fill:none;stroke-linejoin:round;}.cls-2,.cls-6{stroke:#889bb3;}.cls-2{stroke-width:6px;opacity:0.25;}.cls-3{opacity:0.59;}.cls-4{stroke:#98a7bc;stroke-width:4px;}.cls-5{fill:#889bb3;}.cls-6{stroke-width:8px;}</style></defs><g id="Layer_6" data-name="Layer 6"><g id="kocka-2" data-name="kocka"><polygon class="cls-1" points="317.54 227.94 514.29 114.16 317.54 0 120.94 113.97 317.54 227.94"/><polygon class="cls-1" points="3.48 542.72 200.4 656.21 200.88 428.75 3.88 315.47 3.48 542.72"/><polygon class="cls-1" points="631.65 543.32 434.74 656.82 434.25 429.35 631.25 316.07 631.65 543.32"/><polygon class="cls-1" points="148.07 134.32 36.29 198.73 167.19 274.81 255.19 224.68 255.19 196.42 148.07 134.32"/><polygon class="cls-1" points="34.19 202.19 165.17 278.28 165.24 380.23 145.02 392.02 34.19 328.26 34.19 202.19"/><polygon class="cls-1" points="257.19 228.33 169.21 278.29 169.28 379.94 257.19 328.95 257.19 228.33"/><polygon class="cls-1" points="486.85 134.64 598.08 198.74 467.18 274.82 379.19 224.68 379.19 196.91 486.85 134.64"/><polygon class="cls-1" points="600.19 202.19 469.2 278.29 469.13 380.24 490.2 392.51 600.19 329.13 600.19 202.19"/><polygon class="cls-1" points="377.19 228.17 465.16 278.3 465.14 380 377.19 328.96 377.19 228.17"/><polygon class="cls-1" points="205.17 624.09 316.19 688.23 315.73 537.19 227.65 486.39 205.11 499.17 205.17 624.09"/><polygon class="cls-1" points="320.22 688.43 319.87 537.08 407.27 485.99 430.26 499.26 430.26 624.77 320.22 688.43"/><polygon class="cls-1" points="229.81 482.83 317.76 533.63 405.06 482.55 317.97 432.22 229.81 482.83"/></g><g id="pavucina"><polyline class="cls-2" points="426.42 424.84 316.2 361.95 210.49 424.46"/><line class="cls-2" x1="315.65" y1="361.95" x2="315.65" y2="236.77"/><g class="cls-3"><polyline class="cls-4" points="381.27 399.45 316.04 362.23 253.48 399.23"/><line class="cls-4" x1="315.71" y1="362.23" x2="315.71" y2="288.15"/></g><polygon class="cls-5" points="252.42 397.49 254.15 400.49 215.64 424.53 212.93 419.84 252.42 397.49"/><polygon class="cls-5" points="317.66 288.15 314.2 288.15 312.63 242.77 318.05 242.77 317.66 288.15"/><polygon class="cls-5" points="383.2 398.25 381.52 401.28 420.49 424.58 423.11 419.84 383.2 398.25"/><polygon class="cls-4" points="316.45 288.15 382.09 326.09 382.35 399.69 316.71 436.02 253.24 399.46 252.98 325.86 316.45 288.15"/><polyline class="cls-6" points="209.64 301.36 316.04 362.09 316.48 486.24"/><line class="cls-6" x1="315.5" y1="362.09" x2="425.54" y2="301.74"/><polygon class="cls-6" points="315.63 238.44 425.4 301.89 425.84 424.97 316.07 485.73 209.93 424.59 209.49 301.51 315.63 238.44"/></g></g></svg>